<svg xmlns="http://www.w3.org/2000/svg" viewBox="0 0 1024 1024" width="1024" height="1024">
  <rect width="100%" height="100%" fill="#000000"/>
  <path fill="#ff1635" fill-rule="evenodd" d="
    M 598 704 L 591 681 L 588 680 L 573 690 L 534 709 L 495 723 L 471 729 L 438 734 L 392 734 L 352 728 L 352 730 L 373 738 L 404 745 L 422 747 L 474 746 L 514 739 L 554 727 L 598 708 Z M 706 604 L 693 607 L 670 608 L 647 684 L 648 695 L 653 702 L 660 705 L 674 703 L 684 697 L 700 680 L 701 676 L 691 682 L 685 682 L 683 675 Z M 705 554 L 691 554 L 681 561 L 677 571 L 677 578 L 681 586 L 693 590 L 704 586 L 709 581 L 713 573 L 713 562 L 711 558 Z M 288 504 L 284 523 L 283 554 L 286 575 L 293 598 L 301 614 L 313 631 L 331 649 L 347 659 L 347 657 L 325 633 L 305 596 L 298 576 L 293 554 L 290 533 L 290 504 Z M 588 478 L 557 497 L 606 677 L 640 779 L 642 779 L 620 655 L 592 479 Z M 704 394 L 664 407 L 607 429 L 535 461 L 485 486 L 389 542 L 349 570 L 333 583 L 328 590 L 372 569 L 383 566 L 388 567 L 387 574 L 380 590 L 356 631 L 356 633 L 358 633 L 440 552 L 562 476 L 650 425 L 704 396 Z M 544 303 L 542 303 L 422 500 L 421 504 L 424 504 L 474 475 L 527 365 L 531 366 L 543 441 L 546 441 L 579 425 Z M 680 289 L 680 291 L 697 297 L 724 313 L 747 334 L 759 350 L 767 365 L 775 391 L 777 426 L 771 460 L 763 483 L 751 508 L 739 528 L 728 542 L 736 561 L 735 577 L 730 588 L 726 592 L 726 596 L 728 596 L 747 576 L 760 559 L 780 527 L 791 504 L 801 476 L 806 452 L 806 404 L 799 376 L 791 358 L 776 336 L 761 321 L 743 308 L 722 298 L 702 292 Z M 636 234 L 587 233 L 541 238 L 487 251 L 436 270 L 397 290 L 351 321 L 326 342 L 308 360 L 286 386 L 262 423 L 242 468 L 232 509 L 230 555 L 236 593 L 248 624 L 268 655 L 296 682 L 316 695 L 340 706 L 367 714 L 405 719 L 434 719 L 458 716 L 485 710 L 519 697 L 519 695 L 499 700 L 468 704 L 427 704 L 406 701 L 385 696 L 358 686 L 335 673 L 319 661 L 302 644 L 288 625 L 275 599 L 269 580 L 265 555 L 265 521 L 271 489 L 281 460 L 293 435 L 317 398 L 357 354 L 402 318 L 436 297 L 497 269 L 554 251 L 605 240 L 636 236 Z
  "/>
</svg>